HIERARCHY
ROOT Hips
{
    OFFSET   0.000000   0.000000   0.000000
    CHANNELS 6 Xposition Yposition Zposition Zrotation Xrotation Yrotation
    JOINT Chest
    {
        OFFSET   0.000000   8.007230   0.000000
        CHANNELS 3 Zrotation Xrotation Yrotation
        JOINT Chest2
        {
            OFFSET   0.000000  22.077100   0.000000
            CHANNELS 3 Zrotation Xrotation Yrotation
            JOINT Neck
            {
                OFFSET   0.000000  23.254800  -0.000021
                CHANNELS 3 Zrotation Xrotation Yrotation
                JOINT Head
                {
                    OFFSET   0.000000  14.370000   1.956610
                    CHANNELS 3 Zrotation Xrotation Yrotation
                    End Site
                    {
                        OFFSET   0.000000  19.566000   0.000000
                    }
                }
            }
            JOINT LeftCollar
            {
                OFFSET   3.911900  19.017000  -0.467063
                CHANNELS 3 Zrotation Xrotation Yrotation
                JOINT LeftShoulder
                {
                    OFFSET  10.383700   0.000000   0.000000
                    CHANNELS 3 Zrotation Xrotation Yrotation
                    JOINT LeftElbow
                    {
                        OFFSET  26.662100   0.001529   0.000325
                        CHANNELS 3 Zrotation Xrotation Yrotation
                        JOINT LeftWrist
                        {
                            OFFSET  28.869000  -0.000011  -0.000096
                            CHANNELS 3 Zrotation Xrotation Yrotation
                            JOINT LeftFinger0
                            {
                                OFFSET   2.044650  -2.323460   3.252850
                                CHANNELS 3 Zrotation Xrotation Yrotation
                                JOINT LeftFinger01
                                {
                                    OFFSET   3.088130   0.000000   0.000000
                                    CHANNELS 3 Zrotation Xrotation Yrotation
                                    JOINT LeftFinger02
                                    {
                                        OFFSET   2.639460   0.000000   0.000000
                                        CHANNELS 3 Zrotation Xrotation Yrotation
                                        End Site
                                        {
                                            OFFSET   2.582190   0.000000   0.000000
                                        }
                                    }
                                }
                            }
                            JOINT LeftFinger1
                            {
                                OFFSET   8.364480   0.000000   3.252850
                                CHANNELS 3 Zrotation Xrotation Yrotation
                                JOINT LeftFinger11
                                {
                                    OFFSET   4.646930   0.000000   0.000000
                                    CHANNELS 3 Zrotation Xrotation Yrotation
                                    JOINT LeftFinger12
                                    {
                                        OFFSET   2.323460   0.000000   0.000000
                                        CHANNELS 3 Zrotation Xrotation Yrotation
                                        End Site
                                        {
                                            OFFSET   2.273050   0.000000   0.000000
                                        }
                                    }
                                }
                            }
                            JOINT LeftFinger2
                            {
                                OFFSET   8.364480   0.000016   1.078090
                                CHANNELS 3 Zrotation Xrotation Yrotation
                                JOINT LeftFinger21
                                {
                                    OFFSET   5.111620   0.000000   0.000000
                                    CHANNELS 3 Zrotation Xrotation Yrotation
                                    JOINT LeftFinger22
                                    {
                                        OFFSET   2.788160   0.000017   0.000000
                                        CHANNELS 3 Zrotation Xrotation Yrotation
                                        End Site
                                        {
                                            OFFSET   2.727660   0.000000   0.000000
                                        }
                                    }
                                }
                            }
                            JOINT LeftFinger3
                            {
                                OFFSET   7.899780   0.000015  -1.078090
                                CHANNELS 3 Zrotation Xrotation Yrotation
                                JOINT LeftFinger31
                                {
                                    OFFSET   4.646920   0.000000   0.000000
                                    CHANNELS 3 Zrotation Xrotation Yrotation
                                    JOINT LeftFinger32
                                    {
                                        OFFSET   2.323470   0.000000   0.000000
                                        CHANNELS 3 Zrotation Xrotation Yrotation
                                        End Site
                                        {
                                            OFFSET   2.273050   0.000000   0.000000
                                        }
                                    }
                                }
                            }
                            JOINT LeftFinger4
                            {
                                OFFSET   7.435090   0.000000  -3.252850
                                CHANNELS 3 Zrotation Xrotation Yrotation
                                JOINT LeftFinger41
                                {
                                    OFFSET   3.717550   0.000000   0.000000
                                    CHANNELS 3 Zrotation Xrotation Yrotation
                                    JOINT LeftFinger42
                                    {
                                        OFFSET   1.858760   0.000000   0.000000
                                        CHANNELS 3 Zrotation Xrotation Yrotation
                                        End Site
                                        {
                                            OFFSET   1.818440   0.000000   0.000000
                                        }
                                    }
                                }
                            }
                        }
                    }
                }
            }
            JOINT RightCollar
            {
                OFFSET  -3.911900  19.017000  -0.467062
                CHANNELS 3 Zrotation Xrotation Yrotation
                JOINT RightShoulder
                {
                    OFFSET -10.383700   0.000015   0.000000
                    CHANNELS 3 Zrotation Xrotation Yrotation
                    JOINT RightElbow
                    {
                        OFFSET -26.662100   0.001341   0.000385
                        CHANNELS 3 Zrotation Xrotation Yrotation
                        JOINT RightWrist
                        {
                            OFFSET -28.869000   0.000025  -0.000080
                            CHANNELS 3 Zrotation Xrotation Yrotation
                            JOINT RightFinger0
                            {
                                OFFSET  -2.044650  -2.323490   3.252850
                                CHANNELS 3 Zrotation Xrotation Yrotation
                                JOINT RightFinger01
                                {
                                    OFFSET  -3.088130   0.000000   0.000000
                                    CHANNELS 3 Zrotation Xrotation Yrotation
                                    JOINT RightFinger02
                                    {
                                        OFFSET  -2.639460   0.000000   0.000000
                                        CHANNELS 3 Zrotation Xrotation Yrotation
                                        End Site
                                        {
                                            OFFSET  -2.582190   0.000000   0.000000
                                        }
                                    }
                                }
                            }
                            JOINT RightFinger1
                            {
                                OFFSET  -8.364480   0.000000   3.252850
                                CHANNELS 3 Zrotation Xrotation Yrotation
                                JOINT RightFinger11
                                {
                                    OFFSET  -4.646930   0.000000   0.000000
                                    CHANNELS 3 Zrotation Xrotation Yrotation
                                    JOINT RightFinger12
                                    {
                                        OFFSET  -2.323470   0.000000   0.000000
                                        CHANNELS 3 Zrotation Xrotation Yrotation
                                        End Site
                                        {
                                            OFFSET  -2.273050   0.000000   0.000000
                                        }
                                    }
                                }
                            }
                            JOINT RightFinger2
                            {
                                OFFSET  -8.364480   0.000000   1.078090
                                CHANNELS 3 Zrotation Xrotation Yrotation
                                JOINT RightFinger21
                                {
                                    OFFSET  -5.111610   0.000000   0.000000
                                    CHANNELS 3 Zrotation Xrotation Yrotation
                                    JOINT RightFinger22
                                    {
                                        OFFSET  -2.788160   0.000000   0.000000
                                        CHANNELS 3 Zrotation Xrotation Yrotation
                                        End Site
                                        {
                                            OFFSET  -2.727660   0.000000   0.000000
                                        }
                                    }
                                }
                            }
                            JOINT RightFinger3
                            {
                                OFFSET  -7.899780   0.000000  -1.078090
                                CHANNELS 3 Zrotation Xrotation Yrotation
                                JOINT RightFinger31
                                {
                                    OFFSET  -4.646920   0.000000   0.000000
                                    CHANNELS 3 Zrotation Xrotation Yrotation
                                    JOINT RightFinger32
                                    {
                                        OFFSET  -2.323470   0.000000   0.000000
                                        CHANNELS 3 Zrotation Xrotation Yrotation
                                        End Site
                                        {
                                            OFFSET  -2.273050   0.000000   0.000000
                                        }
                                    }
                                }
                            }
                            JOINT RightFinger4
                            {
                                OFFSET  -7.435090   0.000000  -3.252850
                                CHANNELS 3 Zrotation Xrotation Yrotation
                                JOINT RightFinger41
                                {
                                    OFFSET  -3.717550   0.000000   0.000000
                                    CHANNELS 3 Zrotation Xrotation Yrotation
                                    JOINT RightFinger42
                                    {
                                        OFFSET  -1.858770   0.000000   0.000000
                                        CHANNELS 3 Zrotation Xrotation Yrotation
                                        End Site
                                        {
                                            OFFSET  -1.818440   0.000000   0.000000
                                        }
                                    }
                                }
                            }
                        }
                    }
                }
            }
        }
    }
    JOINT LeftHip
    {
        OFFSET   9.783010   0.000000   0.000000
        CHANNELS 3 Zrotation Xrotation Yrotation
        JOINT LeftKnee
        {
            OFFSET   0.000070 -41.789100   0.000028
            CHANNELS 3 Zrotation Xrotation Yrotation
            JOINT LeftAnkle
            {
                OFFSET   0.000087 -41.133200  -0.000100
                CHANNELS 3 Zrotation Xrotation Yrotation
                JOINT LeftToe
                {
                    OFFSET   0.000000  -6.358960  14.674500
                    CHANNELS 3 Zrotation Xrotation Yrotation
                    End Site
                    {
                        OFFSET   0.000000   0.000000   3.913200
                    }
                }
            }
        }
    }
    JOINT RightHip
    {
        OFFSET  -9.783020   0.000000   0.000000
        CHANNELS 3 Zrotation Xrotation Yrotation
        JOINT RightKnee
        {
            OFFSET   0.000044 -41.789100  -0.000870
            CHANNELS 3 Zrotation Xrotation Yrotation
            JOINT RightAnkle
            {
                OFFSET  -0.000090 -41.133200  -0.000245
                CHANNELS 3 Zrotation Xrotation Yrotation
                JOINT RightToe
                {
                    OFFSET   0.000000  -6.358960  14.674500
                    CHANNELS 3 Zrotation Xrotation Yrotation
                    End Site
                    {
                        OFFSET   0.000000   0.000000   3.913200
                    }
                }
            }
        }
    }
}
MOTION
Frames: 4
Frame Time:   0.016667
 -0.224975  89.608800  -1.094120  -3.548730  -8.970380  -5.292550   0.964998   4.824800   0.802085   1.871870   9.662020   1.530370   0.888231   0.560859  -0.002396   1.459480   1.136170   4.076220  -5.704260  -0.468683   0.034946 -74.193100  19.229700   1.742650  -2.853400  -5.967850 -15.413000  17.049500 -21.224100   4.883190  36.700300  27.565500 -62.978600 -29.733700  -0.001991   0.000706  -9.866860  -0.000486   0.003833 -27.771400   7.740660 -14.347000 -23.520400  -0.006595  -0.009967 -16.464300   0.005066  -0.005667 -28.098700   3.148860  -5.874900 -33.854500  -0.003380   0.000000 -22.547000   0.001763  -0.000082 -27.823000   3.120030  -5.890220 -31.841800  -0.008900  -0.003262 -21.206600   0.011609  -0.002718 -31.151700   1.043420  -1.714570 -46.750900   0.000387  -0.001196 -31.136100   0.006858  -0.006503  10.472200   0.132057   6.000920  69.424900  12.676600  -7.678510  -1.810200  -3.823500  13.693900 -13.316400 -10.479500   2.045730 -41.117500  30.611700  66.582300  24.319900  -0.002638   0.001282   7.159940   0.000368   0.001901  27.781800   5.785530  10.832100  23.179700  -0.001277   0.000480  16.225800  -0.006124   0.000616  27.982900   4.572270   8.535590  34.348600  -0.001975  -0.001324  22.876200   0.003133   0.001456  27.195300   2.548860   4.946570  28.292400  -0.002774  -0.003266  18.842700   0.009632   0.000327  35.647100   0.085661   0.119432  53.470900  -0.007378  -0.001803  35.611600   0.004340   0.001455   2.818170  10.647900   3.422730   1.481570   0.141616   8.974720  -2.219160  -2.295280   3.338300  -0.000000   0.000000   0.000000   4.003190   8.030420  -4.851650  -1.927450   3.971280  -8.323410   1.843490  -4.180990   2.715450  -0.000000   0.000000   0.000000
 -0.238941  89.608700  -1.078740  -3.552150  -8.977130  -5.310390   0.962564   4.836380   0.789846   1.868020   9.684980   1.505790   0.857860   0.583591  -0.002400   1.409650   1.182510   4.196840  -5.704100  -0.474658   0.052842 -74.187600  19.315400   1.713440  -2.850940  -5.970280 -15.408500  17.075400 -21.279600   4.914730  36.665900  27.589800 -63.044700 -29.765300  -0.001987   0.000688  -9.882660  -0.000486   0.003844 -27.805300   7.757360 -14.354800 -23.547900  -0.006588  -0.009964 -16.483600   0.005062  -0.005655 -28.101000   3.139030  -5.855520 -33.887000  -0.003384   0.000021 -22.568700   0.001750  -0.000060 -27.824700   3.110310  -5.870770 -31.868600  -0.008875  -0.003227 -21.224500   0.011601  -0.002694 -31.163100   1.043140  -1.714570 -46.768100   0.000372  -0.001166 -31.147600   0.006847  -0.006481  10.479000   0.122844   6.010670  69.412800  12.709100  -7.662870  -1.813050  -3.823870  13.713600 -13.317900 -10.482100   2.036740 -41.110800  30.609800  66.586000  24.330800  -0.002664   0.001295   7.165420   0.000370   0.001922  27.791300   5.778000  10.815900  23.186100  -0.001235   0.000426  16.230300  -0.006139   0.000571  27.984700   4.566170   8.523120  34.371700  -0.001972  -0.001342  22.891600   0.003110   0.001402  27.201700   2.538890   4.925980  28.317500  -0.002730  -0.003287  18.859500   0.009640   0.000280  35.663700   0.081657   0.113785  53.495800  -0.007341  -0.001828  35.628200   0.004319   0.001434   2.826400  10.669900   3.424220   1.481770   0.136688   9.002830  -2.236940  -2.295280   3.325920  -0.000000   0.000000  -0.000000   4.017450   8.058030  -4.864340  -1.925790   3.945780  -8.326190   1.812840  -4.153610   2.725480  -0.000000   0.000000   0.000000
 -0.261670  89.608600  -1.053400  -3.558410  -8.993190  -5.340720   0.960161   4.858350   0.771866   1.864430   9.728620   1.469580   0.798770   0.621056  -0.002417   1.312520   1.258720   4.409320  -5.703880  -0.480633   0.078271 -74.178300  19.487000   1.635180  -2.833740  -5.987260 -15.377100  17.101300 -21.335100   4.946300  36.636900  27.604600 -63.122500 -29.816300  -0.001976   0.000658  -9.908150  -0.000486   0.003865 -27.845700   7.774060 -14.362700 -23.585500  -0.006571  -0.009956 -16.509800   0.005051  -0.005624 -28.106000   3.115630  -5.810390 -33.931400  -0.003396   0.000083 -22.598300   0.001722  -0.000000 -27.826800   3.086990  -5.825600 -31.895400  -0.008816  -0.003148 -21.242400   0.011581  -0.002638 -31.174400   1.042870  -1.714570 -46.785300   0.000333  -0.001097 -31.159000   0.006822  -0.006429  10.487500   0.107528   6.027340  69.393400  12.772000  -7.640280  -1.816670  -3.828120  13.748300 -13.320000 -10.490200   2.023230 -41.092200  30.609600  66.598900  24.348300  -0.002724   0.001323   7.174150   0.000377   0.001966  27.808000   5.770590  10.793200  23.198400  -0.001137   0.000305  16.238900  -0.006178   0.000468  27.987300   4.557770   8.505800  34.407100  -0.001965  -0.001382  22.915200   0.003053   0.001276  27.211500   2.525060   4.897250  28.356000  -0.002629  -0.003332  18.885100   0.009661   0.000174  35.689900   0.075347   0.104893  53.535100  -0.007255  -0.001883  35.654400   0.004265   0.001387   2.841090  10.719100   3.430200   1.481630   0.114230   9.048020  -2.265550  -2.295110   3.303880  -0.000000   0.000000   0.000000   4.039580   8.107740  -4.883620  -1.922810   3.904110  -8.328810   1.765710  -4.108480   2.740100   0.000000   0.000000   0.000000
 -0.279104  89.608500  -1.033540  -3.567790  -9.014680  -5.368230   0.960412   4.879890   0.761135   1.865670   9.771540   1.447540   0.733961   0.651128  -0.002455   1.206110   1.319420   4.605290  -5.712490  -0.480545   0.090505 -74.190500  19.678100   1.526320  -2.801670  -6.110450 -15.299200  17.062000 -21.271900   4.924650  36.588100  27.528200 -63.087800 -29.851600  -0.001960   0.000631  -9.925800  -0.000479   0.003887 -27.856500   7.770230 -14.347200 -23.598000  -0.006546  -0.009945 -16.518500   0.005039  -0.005575 -28.111100   3.088520  -5.759240 -33.946100  -0.003418   0.000194 -22.608100   0.001687   0.000103 -27.825800   3.059620  -5.774590 -31.875500  -0.008730  -0.003033 -21.229100   0.011550  -0.002554 -31.166600   1.042940  -1.717530 -46.773500   0.000278  -0.000999 -31.151200   0.006784  -0.006352  10.489800   0.096697   6.041890  69.379400  12.840300  -7.629820  -1.817870  -3.841770  13.780500 -13.318100 -10.505400   2.015590 -41.081400  30.620300  66.635400  24.357700  -0.002813   0.001361   7.178860   0.000388   0.002026  27.825300   5.772000  10.785700  23.212500  -0.000994   0.000131  16.248800  -0.006240   0.000319  27.988100   4.555650   8.500860  34.430000  -0.001957  -0.001433  22.930400   0.002964   0.001095  27.217700   2.520830   4.887910  28.380100  -0.002485  -0.003396  18.901200   0.009693   0.000024  35.708500   0.071035   0.098609  53.562900  -0.007131  -0.001963  35.672900   0.004185   0.001323   2.855040  10.790900   3.444410   1.477850   0.049041   9.081430  -2.286290  -2.274870   3.282930  -0.000000   0.000000   0.000000   4.053890   8.154140  -4.895290  -1.920260   3.871900  -8.326760   1.737540  -4.073440   2.746440  -0.000000   0.000000   0.000000
